<?xml version="1.0" standalone="no"?>
<!DOCTYPE svg PUBLIC "-//W3C//DTD SVG 20010904//EN"
 "http://www.w3.org/TR/2001/REC-SVG-20010904/DTD/svg10.dtd">
<svg version="1.0" xmlns="http://www.w3.org/2000/svg"
 width="1024.000000pt" height="1024.000000pt" viewBox="0 0 1024.000000 1024.000000"
 preserveAspectRatio="xMidYMid meet">
<metadata>
Created by potrace 1.14, written by Peter Selinger 2001-2017
</metadata>
<g transform="translate(0.000000,1024.000000) scale(0.100000,-0.100000)"
fill="#000000" stroke="none">
<path d="M4847 9503 c-1 -1 -45 -4 -97 -7 -52 -3 -113 -8 -135 -11 -45 -6 -99
-13 -165 -20 -25 -3 -67 -10 -95 -15 -57 -11 -95 -18 -144 -26 -39 -7 -35 -6
-166 -39 -55 -14 -110 -28 -123 -30 -13 -3 -44 -13 -69 -21 -25 -9 -53 -17
-62 -19 -20 -4 -204 -68 -251 -88 -44 -18 -74 -30 -80 -32 -12 -4 -47 -17 -65
-25 -64 -26 -364 -176 -384 -191 -13 -10 -27 -16 -32 -13 -5 3 -9 1 -9 -4 0
-5 -18 -17 -40 -27 -22 -10 -40 -21 -40 -25 0 -4 -18 -15 -40 -25 -22 -10 -40
-22 -40 -27 0 -4 -4 -8 -10 -8 -9 0 -72 -39 -97 -60 -7 -5 -15 -10 -17 -10 -3
0 -14 -6 -23 -14 -10 -8 -65 -49 -123 -92 -58 -42 -106 -81 -108 -86 -2 -4 -8
-8 -13 -8 -6 0 -20 -10 -33 -22 -13 -13 -34 -32 -47 -42 -116 -92 -335 -306
-459 -446 -36 -40 -73 -81 -82 -92 -10 -10 -18 -20 -18 -23 0 -3 -9 -15 -19
-27 -38 -45 -56 -67 -76 -94 -11 -15 -24 -32 -30 -39 -5 -6 -14 -18 -20 -27
-5 -8 -38 -54 -73 -102 -34 -47 -62 -89 -62 -92 0 -8 -44 -69 -52 -72 -5 -2
-8 -8 -8 -14 0 -6 -14 -30 -30 -55 -17 -25 -32 -50 -33 -56 -1 -7 -5 -14 -8
-17 -17 -15 -153 -276 -206 -395 -19 -44 -42 -96 -51 -115 -9 -19 -16 -37 -17
-40 0 -3 -14 -39 -30 -80 -16 -41 -30 -77 -31 -80 0 -3 -6 -18 -12 -33 -7 -16
-12 -34 -12 -40 0 -7 -7 -25 -15 -40 -8 -16 -16 -38 -18 -50 -2 -12 -6 -29 -9
-37 -47 -139 -140 -538 -142 -607 0 -13 -3 -23 -6 -23 -3 0 -6 -15 -6 -32 -1
-18 -4 -51 -8 -73 -4 -22 -9 -65 -11 -95 -3 -30 -7 -73 -10 -95 -23 -199 -23
-571 0 -810 15 -147 14 -142 31 -252 3 -21 7 -49 9 -63 7 -51 35 -191 51 -263
2 -9 6 -27 9 -38 2 -12 14 -58 26 -103 11 -45 22 -85 23 -91 4 -20 57 -191 66
-210 4 -11 18 -50 31 -87 12 -37 26 -65 30 -63 6 4 68 94 94 137 6 9 41 67 80
130 38 62 70 115 70 118 1 3 9 22 18 44 9 21 17 40 17 43 0 4 57 156 71 188 5
11 18 47 29 80 12 33 25 69 30 80 45 98 51 142 36 230 -3 17 -8 53 -11 80 -3
28 -7 66 -10 85 -23 166 -23 609 -1 725 2 11 7 52 11 90 4 39 9 78 11 89 2 10
6 37 8 60 3 22 8 52 11 66 8 35 25 120 31 150 3 14 8 34 11 45 4 11 7 22 8 25
6 34 32 129 48 180 12 36 22 67 22 70 8 33 19 67 24 75 3 6 6 15 7 20 1 6 25
69 54 140 69 173 224 489 257 523 7 7 13 18 13 24 0 6 8 16 17 23 15 11 10 18
-40 68 -82 80 -121 176 -118 287 3 79 11 121 31 166 11 23 20 46 20 49 0 4 20
38 45 76 103 159 269 287 411 317 32 7 189 9 189 2 0 -1 27 -3 60 -5 33 -2 60
-4 60 -5 0 0 33 -3 73 -6 41 -2 77 -5 80 -6 8 -3 57 28 84 52 29 26 40 34 153
112 175 120 408 251 570 320 73 31 247 100 259 102 6 1 56 17 111 35 55 18
107 34 115 36 8 2 65 16 125 31 61 14 121 28 135 30 26 3 78 12 120 20 42 8
137 20 245 30 101 10 495 9 595 0 41 -4 89 -9 105 -11 17 -1 41 -6 55 -9 14
-3 43 -8 65 -10 22 -2 51 -7 65 -10 14 -4 39 -8 55 -11 54 -7 90 -15 206 -46
63 -16 121 -31 129 -33 44 -12 238 -80 286 -101 30 -13 58 -25 62 -26 37 -8
286 -129 294 -143 4 -6 8 -7 8 -3 0 8 59 -21 70 -34 3 -3 12 -8 20 -12 8 -4
33 -18 55 -32 22 -14 47 -28 55 -32 8 -4 57 -36 109 -71 78 -54 103 -66 140
-68 137 -8 233 -47 317 -130 76 -76 131 -180 149 -285 3 -19 18 -47 33 -63 51
-55 57 -62 102 -116 25 -29 50 -58 56 -64 18 -19 162 -214 180 -246 10 -16 22
-30 26 -30 4 0 8 -4 8 -9 0 -5 17 -36 38 -68 22 -32 50 -78 63 -103 13 -25 26
-47 29 -50 10 -10 115 -216 153 -300 46 -101 95 -220 91 -220 -2 0 5 -19 17
-42 12 -24 21 -45 21 -48 -1 -3 14 -54 33 -115 36 -115 69 -239 79 -290 3 -16
12 -61 20 -100 8 -38 17 -88 20 -110 11 -70 25 -168 24 -174 0 -3 1 -8 2 -11
1 -5 8 -74 13 -145 1 -16 6 -35 10 -42 4 -6 4 -14 -1 -17 -5 -3 -6 -27 -3 -53
11 -88 1 -469 -13 -492 -4 -5 -2 -12 4 -16 6 -4 8 -11 4 -16 -3 -5 4 -37 16
-72 12 -34 23 -66 25 -72 1 -5 5 -17 8 -25 5 -14 59 -185 63 -202 1 -5 3 -11
4 -15 1 -5 3 -12 4 -18 1 -5 5 -17 8 -25 7 -17 57 -195 63 -225 40 -181 70
-247 148 -325 90 -90 119 -112 133 -97 11 11 69 190 80 247 2 14 9 40 15 58 6
18 12 39 13 45 3 15 20 90 21 97 1 3 5 23 10 45 4 22 10 49 12 60 17 73 56
322 57 368 1 15 3 27 6 27 3 0 6 24 7 53 1 28 5 104 9 167 18 299 -2 708 -47
965 -5 33 -12 74 -15 90 -12 73 -37 188 -61 280 -14 55 -27 107 -28 115 -2 8
-4 15 -5 15 -1 0 -3 10 -5 21 -6 30 -113 352 -132 394 -8 19 -19 44 -23 55
-31 78 -103 241 -131 297 -16 32 -29 61 -28 64 0 4 -3 10 -8 13 -5 3 -14 17
-20 31 -30 62 -151 269 -205 347 -15 23 -28 46 -28 51 0 6 -3 12 -8 14 -4 2
-30 35 -57 73 -27 39 -53 72 -57 73 -4 2 -8 8 -8 13 0 11 -119 163 -131 167
-5 2 -9 10 -9 17 0 7 -4 15 -8 17 -5 2 -38 37 -73 78 -110 128 -368 381 -469
460 -25 19 -52 41 -60 50 -8 8 -33 29 -55 45 -22 16 -44 33 -50 38 -86 69
-385 269 -468 312 -13 7 -53 28 -88 47 -110 60 -114 62 -119 63 -3 1 -44 20
-92 43 -48 23 -92 42 -98 42 -5 0 -10 4 -10 8 0 5 -6 9 -12 9 -7 1 -58 20
-113 43 -105 44 -350 127 -399 136 -16 3 -33 7 -38 10 -4 3 -16 7 -25 9 -10 2
-54 12 -98 23 -83 21 -162 38 -275 58 -61 11 -64 12 -125 19 -33 4 -69 9 -80
11 -29 5 -136 15 -207 19 -35 2 -63 4 -63 5 0 2 -416 6 -418 3z"/>
<path d="M5690 7933 c-51 -25 -116 -84 -125 -114 -4 -10 -11 -19 -16 -19 -5 0
-9 -8 -9 -18 0 -10 -4 -22 -10 -28 -19 -19 -31 -143 -18 -193 15 -59 38 -94
85 -131 25 -19 51 -41 58 -47 8 -7 18 -13 24 -13 6 0 11 -4 11 -10 0 -5 4 -10
9 -10 18 0 276 -188 297 -217 26 -35 67 -113 59 -113 -3 0 -1 -10 6 -21 26
-49 18 -90 -35 -174 -27 -44 -56 -88 -64 -97 -8 -10 -12 -18 -9 -18 4 0 0 -8
-9 -17 -8 -10 -41 -55 -72 -100 -31 -45 -83 -111 -115 -146 -143 -160 -172
-229 -142 -342 10 -37 43 -104 63 -127 23 -28 2 -21 -24 7 -13 14 -28 25 -34
25 -5 0 -10 4 -10 9 0 9 -101 62 -130 69 -8 1 -40 3 -70 4 -95 1 -171 -45
-211 -131 -12 -25 -22 -50 -24 -56 -1 -5 -8 -23 -15 -40 -7 -16 -14 -32 -15
-35 0 -3 -6 -15 -14 -28 -10 -19 -15 -21 -27 -11 -8 6 -14 15 -14 19 0 5 -22
47 -50 95 -27 48 -50 88 -50 91 0 2 -13 25 -28 51 -49 81 -86 148 -87 153 0 3
-8 16 -16 30 -34 53 -129 231 -129 240 0 6 -3 10 -7 10 -5 0 -13 10 -19 23
-20 43 -97 182 -115 208 -10 14 -16 28 -13 31 2 3 -2 11 -11 18 -8 7 -15 19
-15 26 0 8 -4 14 -10 14 -5 0 -10 5 -10 11 0 6 -39 77 -87 157 -49 81 -89 153
-91 160 -2 6 -8 12 -13 12 -5 0 -9 5 -9 11 0 5 -18 37 -40 69 -22 32 -40 64
-40 70 0 6 -7 13 -15 16 -8 4 -15 10 -15 15 0 4 -21 38 -47 74 -27 37 -55 77
-63 89 -57 85 -214 246 -239 246 -5 0 -11 4 -13 8 -1 4 -25 18 -52 31 -48 22
-127 28 -211 16 -162 -23 -640 -23 -840 0 -44 5 -140 13 -257 22 -85 5 -130
-5 -193 -46 -95 -62 -205 -207 -220 -291 -11 -59 -13 -80 -6 -80 4 0 8 -10 8
-22 5 -61 56 -101 148 -117 33 -6 69 -12 80 -15 11 -3 38 -10 60 -15 94 -24
172 -81 200 -148 35 -83 21 -199 -47 -403 -12 -36 -22 -67 -23 -70 0 -3 -3 -9
-6 -15 -4 -5 -12 -28 -19 -50 -13 -41 -108 -241 -155 -327 -61 -109 -18 -229
120 -330 l39 -29 -43 6 c-24 3 -47 8 -52 11 -5 3 -9 2 -9 -3 0 -4 -16 -9 -36
-11 -43 -3 -79 -21 -121 -61 -29 -27 -62 -77 -64 -98 -2 -14 -6 -25 -110 -343
-57 -173 -102 -318 -101 -322 1 -5 -3 -8 -10 -8 -6 0 -9 -3 -6 -6 5 -5 -53
-181 -101 -309 -11 -27 -43 -115 -71 -195 -28 -80 -57 -161 -65 -180 -26 -63
-38 -95 -40 -105 0 -5 -6 -21 -12 -35 -6 -14 -26 -68 -46 -120 -20 -52 -42
-111 -50 -130 -27 -68 -30 -75 -33 -89 -1 -7 -17 -37 -35 -65 -17 -28 -40 -64
-49 -81 -21 -36 -106 -174 -120 -195 -122 -180 -221 -293 -340 -384 -55 -43
-174 -116 -189 -116 -22 0 -91 -75 -111 -122 -29 -66 -35 -175 -14 -233 8 -22
16 -46 18 -53 6 -32 79 -102 132 -127 48 -23 67 -26 114 -22 66 5 76 10 207
98 82 55 240 140 258 139 3 0 19 7 35 15 16 8 32 15 35 15 3 0 29 6 58 15 28
8 63 17 77 19 14 3 25 5 25 6 0 3 90 21 130 26 164 19 334 22 485 9 198 -18
247 -10 311 47 56 50 84 107 94 191 2 21 7 42 10 47 3 6 3 10 -2 10 -4 0 -9
19 -9 43 -2 55 -48 150 -93 189 -38 34 -100 64 -146 71 -68 11 -73 19 -82 147
-10 136 -7 247 12 367 3 18 7 48 10 65 2 18 7 44 10 58 3 14 7 34 9 45 10 46
59 224 76 275 18 56 75 212 87 240 3 8 7 17 8 20 1 3 9 22 18 44 9 21 17 40
17 42 0 11 188 400 220 454 31 54 65 116 65 120 0 3 13 25 27 50 47 78 55 188
20 255 -22 42 -76 102 -132 146 l-33 26 50 -4 c129 -13 228 37 303 154 28 43
57 87 65 98 8 10 15 25 15 31 0 7 3 14 8 16 13 6 67 125 64 141 -3 11 5 9 57
-17 103 -53 208 -151 317 -296 46 -61 124 -179 124 -186 0 -3 12 -24 28 -47
15 -23 36 -60 47 -82 10 -22 27 -52 37 -67 10 -14 18 -30 18 -36 0 -5 18 -42
41 -83 22 -41 40 -76 41 -79 0 -3 5 -16 11 -30 6 -14 11 -27 12 -30 1 -3 16
-36 33 -74 18 -38 32 -70 32 -71 0 -1 8 -20 17 -41 9 -22 17 -41 18 -44 1 -3
7 -18 14 -35 7 -16 18 -46 26 -65 7 -19 27 -73 45 -120 31 -81 109 -299 111
-310 1 -3 5 -15 10 -27 6 -17 36 -111 44 -143 1 -3 4 -12 8 -20 13 -35 108
-352 122 -410 2 -8 11 -42 20 -75 9 -33 18 -70 21 -82 2 -12 9 -35 15 -50 6
-16 10 -30 10 -33 0 -3 4 -23 10 -45 6 -22 13 -49 15 -60 2 -11 8 -38 13 -60
28 -116 86 -380 97 -445 5 -28 21 -120 28 -165 11 -62 25 -172 31 -235 8 -84
14 -121 23 -134 4 -6 7 -13 8 -16 6 -29 33 -68 76 -109 60 -57 69 -61 170 -66
79 -4 98 3 179 71 43 36 196 175 284 259 29 28 108 102 175 165 67 63 148 140
179 170 32 30 90 84 129 120 40 36 72 68 72 72 0 4 7 16 16 27 16 18 77 151
70 151 -2 0 2 25 9 55 13 54 6 125 -15 150 -4 5 -8 12 -8 15 -1 7 -17 52 -45
120 -12 30 -21 58 -19 63 1 4 -3 7 -8 7 -6 0 -10 6 -10 13 0 18 -77 193 -165
373 -40 83 -78 169 -85 190 -7 21 -16 47 -21 56 -5 10 -12 35 -15 55 -3 21 -9
56 -13 78 -12 73 -3 229 18 303 5 17 7 33 3 36 -3 3 0 6 7 6 7 0 10 4 7 8 -3
5 8 52 24 105 15 54 28 99 28 100 1 1 3 9 5 17 3 8 8 24 10 35 3 11 17 61 30
110 13 50 27 106 31 125 3 19 8 44 10 55 6 30 18 134 21 180 3 48 -37 166 -73
212 -25 34 -21 44 7 20 59 -49 155 -99 198 -104 101 -12 137 -5 199 40 40 29
53 34 69 25 25 -13 95 -79 95 -90 0 -4 15 -31 33 -60 19 -29 50 -84 71 -121
20 -37 46 -84 58 -105 56 -100 175 -346 249 -517 22 -49 44 -99 49 -110 5 -11
20 -47 33 -80 13 -33 28 -69 32 -80 5 -11 9 -22 10 -25 1 -3 5 -13 8 -22 14
-37 20 -53 23 -63 11 -37 75 -209 85 -227 7 -13 11 -23 9 -23 -4 0 8 -43 20
-70 7 -18 73 -222 75 -235 1 -3 5 -30 10 -60 5 -30 9 -57 10 -60 3 -12 15 -99
19 -137 2 -23 7 -46 10 -52 4 -5 2 -12 -4 -16 -7 -4 -7 -12 0 -25 6 -12 6 -21
1 -25 -6 -3 -8 -15 -5 -28 2 -12 -1 -43 -7 -70 -9 -39 -23 -59 -78 -111 -99
-96 -198 -182 -230 -200 -9 -5 -25 -18 -35 -28 -11 -10 -23 -18 -27 -18 -17 0
-69 -57 -82 -90 -19 -44 -32 -164 -21 -182 5 -7 9 -17 9 -23 0 -5 9 -37 20
-70 26 -77 69 -118 147 -140 105 -29 179 -16 258 45 39 30 160 102 160 95 0
-3 18 5 40 16 21 11 45 22 52 23 7 2 27 9 43 15 17 7 38 14 48 16 10 2 26 6
35 9 9 3 37 8 62 11 25 3 56 8 70 10 137 23 429 33 632 22 98 -5 240 -24 268
-34 8 -4 29 -8 45 -10 17 -2 55 -11 85 -19 30 -8 64 -17 74 -19 23 -5 86 -24
106 -32 8 -4 17 -7 20 -8 22 -8 50 -19 78 -31 18 -8 39 -14 47 -14 7 0 15 -5
17 -10 7 -23 155 -32 217 -13 75 22 139 72 154 119 3 10 13 39 22 64 20 53 27
99 17 114 -3 6 -8 20 -9 30 -16 98 -84 177 -293 336 -46 36 -91 70 -100 77 -8
7 -44 34 -80 60 -181 134 -303 290 -325 413 -3 18 -10 41 -15 51 -6 10 -10 26
-10 36 0 9 -9 47 -20 83 -11 36 -34 115 -51 175 -67 240 -173 556 -291 875
-11 30 -24 64 -28 75 -4 11 -16 40 -25 65 -9 25 -23 59 -30 75 -7 17 -25 62
-40 100 -15 39 -34 86 -42 105 -16 37 -22 51 -69 165 -15 39 -33 73 -39 77 -5
4 -6 8 -1 8 5 0 4 6 -2 13 -6 6 -11 15 -11 20 0 4 -12 32 -26 62 -14 31 -25
57 -25 60 0 2 -25 56 -55 120 -30 65 -55 119 -55 122 0 12 -264 538 -271 541
-5 2 -9 9 -9 16 0 6 -15 41 -34 76 -32 61 -44 112 -61 254 -11 94 -26 338 -29
486 -2 94 -7 125 -26 170 -24 57 -84 130 -107 130 -7 0 -13 5 -13 11 0 5 -4 8
-9 5 -5 -4 -11 -2 -13 4 -1 5 -37 13 -78 16 -65 6 -88 3 -163 -21 -102 -32
-163 -33 -317 -10 -19 3 -53 7 -75 9 -22 3 -40 5 -40 6 0 1 -20 3 -45 5 -25 1
-61 5 -80 8 -19 3 -62 9 -95 12 -33 3 -76 8 -95 11 -19 3 -55 7 -80 9 -25 3
-69 7 -99 10 -248 25 -298 25 -351 -2z"/>
<path d="M7957 2654 c-1 -1 -47 -5 -102 -8 -87 -5 -119 -8 -195 -20 -8 -1 -73
-61 -145 -132 -184 -185 -352 -323 -555 -455 -141 -93 -168 -109 -177 -110 -5
0 -15 -6 -23 -14 -8 -7 -64 -38 -125 -69 -60 -31 -117 -61 -125 -68 -8 -7 -17
-12 -20 -11 -3 0 -20 -5 -39 -13 -18 -8 -35 -14 -37 -14 -2 0 -27 -11 -56 -24
-29 -13 -75 -31 -103 -41 -27 -9 -58 -21 -69 -27 -10 -5 -26 -11 -35 -13 -9
-2 -63 -18 -121 -35 -103 -31 -233 -65 -288 -75 -26 -5 -50 -9 -102 -20 -38
-7 -80 -14 -130 -20 -25 -2 -61 -7 -80 -10 -109 -17 -600 -30 -600 -16 0 3
-28 6 -63 7 -34 1 -84 4 -112 7 -27 4 -72 9 -100 12 -27 3 -57 8 -66 11 -9 2
-34 7 -55 9 -40 5 -79 12 -79 15 0 1 -13 4 -30 6 -16 2 -46 8 -65 13 -33 9
-80 20 -97 22 -5 1 -19 6 -33 11 -14 5 -33 12 -42 14 -10 2 -26 6 -35 8 -10 2
-40 12 -68 21 -27 9 -56 18 -63 20 -7 3 -16 5 -20 6 -11 2 -104 38 -139 54
-17 8 -38 15 -47 15 -9 0 -16 5 -16 12 0 6 -3 8 -6 5 -4 -3 -16 -1 -28 5 -11
7 -23 12 -26 13 -22 2 -337 167 -422 221 -101 64 -123 80 -126 87 -2 4 -8 7
-13 7 -10 0 -177 120 -235 169 -17 14 -50 42 -73 61 -58 48 -80 67 -198 181
-64 61 -108 96 -117 93 -20 -8 -106 -11 -106 -5 0 14 -385 19 -500 7 -41 -4
-85 -8 -97 -9 -13 0 -23 -4 -23 -9 0 -4 -6 -5 -12 -3 -19 7 -108 -18 -108 -30
0 -12 162 -224 208 -271 17 -19 32 -36 32 -37 0 -7 113 -129 211 -226 93 -93
155 -151 288 -267 60 -52 290 -224 300 -224 5 0 11 -4 13 -8 5 -12 142 -102
156 -102 7 0 12 -4 12 -8 0 -5 12 -15 27 -22 16 -8 35 -19 43 -26 56 -43 478
-254 508 -254 7 0 12 -4 12 -10 0 -5 7 -10 15 -10 8 0 39 -11 70 -24 30 -14
55 -23 55 -21 0 2 32 -9 70 -25 38 -16 70 -27 70 -24 0 3 10 -1 22 -7 13 -7
36 -16 53 -20 16 -4 62 -17 100 -29 39 -12 86 -26 105 -30 19 -5 46 -11 60
-15 14 -4 34 -8 45 -11 11 -2 49 -10 85 -18 36 -8 79 -17 95 -20 17 -2 39 -7
50 -9 29 -6 171 -27 225 -32 19 -2 49 -6 65 -9 17 -3 67 -7 111 -9 45 -3 86
-7 92 -11 6 -3 13 -2 16 3 3 5 21 6 38 2 58 -12 498 -2 598 14 14 2 48 6 75
10 69 8 116 14 145 20 13 3 42 7 65 10 114 17 441 95 503 120 17 8 32 12 32 9
0 -2 13 2 30 11 16 8 31 15 32 14 7 -4 127 37 195 67 17 8 34 14 37 14 3 0 30
11 60 25 30 14 62 25 70 25 9 0 16 5 16 10 0 6 7 10 15 10 8 0 30 9 50 20 19
11 35 17 35 14 0 -4 6 -2 13 4 7 6 60 35 118 65 57 29 124 66 149 81 25 14 60
34 78 43 17 9 32 20 32 25 0 4 6 8 13 8 7 0 22 7 32 15 40 30 127 85 135 85 5
0 10 3 12 8 2 4 35 30 73 57 228 160 530 432 705 635 30 35 73 84 95 110 68
78 255 327 255 340 0 3 -6 7 -12 7 -14 0 -70 10 -108 18 -55 12 -443 28 -453
19z"/>
</g>
</svg>
